ply
format ascii 1.0
element vertex 48
property float x
property float y
property float z
element face 144
property list uchar int vertex_index
end_header
0.00000 0.00000 0.00000
0.31400 0.00000 0.00000
0.31400 0.29500 0.00000
0.00000 0.29500 0.00000
0.00000 0.00000 0.01200
0.31400 0.00000 0.01200
0.31400 0.29500 0.01200
0.00000 0.29500 0.01200
0.00000 0.00000 0.30000
0.31400 0.00000 0.30000
0.31400 0.29500 0.30000
0.00000 0.29500 0.30000
0.00000 0.00000 0.31200
0.31400 0.00000 0.31200
0.31400 0.29500 0.31200
0.00000 0.29500 0.31200
0.00000 0.00000 0.60000
0.31400 0.00000 0.60000
0.31400 0.29500 0.60000
0.00000 0.29500 0.60000
0.00000 0.00000 0.61200
0.31400 0.00000 0.61200
0.31400 0.29500 0.61200
0.00000 0.29500 0.61200
0.00000 0.00000 0.01200
0.01400 0.00000 0.01200
0.01400 0.29500 0.01200
0.00000 0.29500 0.01200
0.00000 0.00000 0.60000
0.01400 0.00000 0.60000
0.01400 0.29500 0.60000
0.00000 0.29500 0.60000
0.30000 0.00000 0.01200
0.31400 0.00000 0.01200
0.31400 0.29500 0.01200
0.30000 0.29500 0.01200
0.30000 0.00000 0.60000
0.31400 0.00000 0.60000
0.31400 0.29500 0.60000
0.30000 0.29500 0.60000
0.00000 0.29250 0.01200
0.31400 0.29250 0.01200
0.31400 0.29500 0.01200
0.00000 0.29500 0.01200
0.00000 0.29250 0.60000
0.31400 0.29250 0.60000
0.31400 0.29500 0.60000
0.00000 0.29500 0.60000
3 0 2 1 
3 0 1 2 
3 0 3 2 
3 0 2 3 
3 0 1 4 
3 0 4 1 
3 1 5 4 
3 1 4 5 
3 1 2 6 
3 1 6 2 
3 1 6 5 
3 1 5 6 
3 0 4 7 
3 0 7 4 
3 0 7 3 
3 0 3 7 
3 3 2 7 
3 3 7 2 
3 2 6 7 
3 2 7 6 
3 4 5 6 
3 4 6 5 
3 4 6 7 
3 4 7 6 
3 8 10 9 
3 8 9 10 
3 8 11 10 
3 8 10 11 
3 8 9 12 
3 8 12 9 
3 9 13 12 
3 9 12 13 
3 9 10 14 
3 9 14 10 
3 9 14 13 
3 9 13 14 
3 8 12 15 
3 8 15 12 
3 8 15 11 
3 8 11 15 
3 11 10 15 
3 11 15 10 
3 10 14 15 
3 10 15 14 
3 12 13 14 
3 12 14 13 
3 12 14 15 
3 12 15 14 
3 16 18 17 
3 16 17 18 
3 16 19 18 
3 16 18 19 
3 16 17 20 
3 16 20 17 
3 17 21 20 
3 17 20 21 
3 17 18 22 
3 17 22 18 
3 17 22 21 
3 17 21 22 
3 16 20 23 
3 16 23 20 
3 16 23 19 
3 16 19 23 
3 19 18 23 
3 19 23 18 
3 18 22 23 
3 18 23 22 
3 20 21 22 
3 20 22 21 
3 20 22 23 
3 20 23 22 
3 24 26 25 
3 24 25 26 
3 24 27 26 
3 24 26 27 
3 24 25 28 
3 24 28 25 
3 25 29 28 
3 25 28 29 
3 25 26 30 
3 25 30 26 
3 25 30 29 
3 25 29 30 
3 24 28 31 
3 24 31 28 
3 24 31 27 
3 24 27 31 
3 27 26 31 
3 27 31 26 
3 26 30 31 
3 26 31 30 
3 28 29 30 
3 28 30 29 
3 28 30 31 
3 28 31 30 
3 32 34 33 
3 32 33 34 
3 32 35 34 
3 32 34 35 
3 32 33 36 
3 32 36 33 
3 33 37 36 
3 33 36 37 
3 33 34 38 
3 33 38 34 
3 33 38 37 
3 33 37 38 
3 32 36 39 
3 32 39 36 
3 32 39 35 
3 32 35 39 
3 35 34 39 
3 35 39 34 
3 34 38 39 
3 34 39 38 
3 36 37 38 
3 36 38 37 
3 36 38 39 
3 36 39 38 
3 40 42 41 
3 40 41 42 
3 40 43 42 
3 40 42 43 
3 40 41 44 
3 40 44 41 
3 41 45 44 
3 41 44 45 
3 41 42 46 
3 41 46 42 
3 41 46 45 
3 41 45 46 
3 40 44 47 
3 40 47 44 
3 40 47 43 
3 40 43 47 
3 43 42 47 
3 43 47 42 
3 42 46 47 
3 42 47 46 
3 44 45 46 
3 44 46 45 
3 44 46 47 
3 44 47 46 
